# xmcd
#
# Track frame offsets:
#	150
#	19794
#	31833
#	45807
#	56614
#	71639
#	87951
#	105707
#	127116
#	149653
#	162641
#	172221
#	183634
#	195417
#
# Disc length: 2746 seconds
#
# Revision: 3
# Processed by: cddbd v1.5.2PL0 Copyright (c) Steve Scherf et al.
# Submitted via: audiograbber 1.83.01
#
DISCID=c90ab80e
DTITLE=Johnny Winter - Memories Of Johnny Winter [CD1)
DYEAR=2000
DGENRE=Blues
TTITLE0=Prodigal Son
TTITLE1=Bad News
TTITLE2=Golden Days Of Rock'n Rroll
TTITLE3=Out Of Sight
TTITLE4=Let The Music Play
TTITLE5=On The Limb
TTITLE6=Stranger
TTITLE7=Going Down Slow
TTITLE8=Look Up
TTITLE9=Livin' In The Blues
TTITLE10=Roadrunner
TTITLE11=Gangster Of Love
TTITLE12=The Guy You Left Behind
TTITLE13=Shed So Many Tears
EXTD=A product from Holland. Manufactured in European Union. (2000 BIEM/STEMRA)
EXTT0=
EXTT1=
EXTT2=
EXTT3=
EXTT4=
EXTT5=
EXTT6=
EXTT7=
EXTT8=
EXTT9=
EXTT10=
EXTT11=
EXTT12=
EXTT13=
PLAYORDER=
